<mxfile host="app.diagrams.net" modified="2022-11-17T02:04:14.043Z" agent="5.0 (Windows NT 10.0; Win64; x64) AppleWebKit/537.36 (KHTML, like Gecko) Chrome/107.0.0.0 Safari/537.36" etag="e_b7acPsXlDHR6-tEt4K" version="20.5.3" type="github" pages="2">
  <diagram id="4qhsH9sUOZMNP4-SZvKx" name="ERD">
    <mxGraphModel dx="1958" dy="1574" grid="1" gridSize="10" guides="1" tooltips="1" connect="1" arrows="1" fold="1" page="1" pageScale="1" pageWidth="850" pageHeight="1100" math="0" shadow="0">
      <root>
        <mxCell id="0" />
        <mxCell id="1" parent="0" />
        <mxCell id="Mn67_2vZST6HhARWVlX7-23" value="" style="edgeStyle=orthogonalEdgeStyle;rounded=0;orthogonalLoop=1;jettySize=auto;html=1;endArrow=none;endFill=0;" parent="1" source="Of87TxWu2fHP0NDlsVTv-1" target="Mn67_2vZST6HhARWVlX7-22" edge="1">
          <mxGeometry relative="1" as="geometry" />
        </mxCell>
        <mxCell id="Mn67_2vZST6HhARWVlX7-25" value="" style="edgeStyle=orthogonalEdgeStyle;rounded=0;orthogonalLoop=1;jettySize=auto;html=1;endArrow=none;endFill=0;" parent="1" source="Of87TxWu2fHP0NDlsVTv-1" target="Mn67_2vZST6HhARWVlX7-24" edge="1">
          <mxGeometry relative="1" as="geometry">
            <Array as="points">
              <mxPoint x="710" y="480" />
            </Array>
          </mxGeometry>
        </mxCell>
        <mxCell id="Mn67_2vZST6HhARWVlX7-30" style="edgeStyle=orthogonalEdgeStyle;rounded=0;orthogonalLoop=1;jettySize=auto;html=1;endArrow=none;endFill=0;" parent="1" source="Of87TxWu2fHP0NDlsVTv-1" edge="1">
          <mxGeometry relative="1" as="geometry">
            <mxPoint x="710" y="430" as="targetPoint" />
            <Array as="points">
              <mxPoint x="710" y="450" />
            </Array>
          </mxGeometry>
        </mxCell>
        <mxCell id="Mn67_2vZST6HhARWVlX7-32" value="" style="edgeStyle=orthogonalEdgeStyle;rounded=0;orthogonalLoop=1;jettySize=auto;html=1;endArrow=none;endFill=0;" parent="1" source="Of87TxWu2fHP0NDlsVTv-1" target="Mn67_2vZST6HhARWVlX7-31" edge="1">
          <mxGeometry relative="1" as="geometry">
            <Array as="points">
              <mxPoint x="520" y="520" />
              <mxPoint x="490" y="520" />
            </Array>
          </mxGeometry>
        </mxCell>
        <mxCell id="Mn67_2vZST6HhARWVlX7-34" value="" style="edgeStyle=orthogonalEdgeStyle;rounded=0;orthogonalLoop=1;jettySize=auto;html=1;endArrow=none;endFill=0;" parent="1" source="Of87TxWu2fHP0NDlsVTv-1" target="Mn67_2vZST6HhARWVlX7-33" edge="1">
          <mxGeometry relative="1" as="geometry">
            <Array as="points">
              <mxPoint x="610" y="400" />
              <mxPoint x="640" y="400" />
            </Array>
          </mxGeometry>
        </mxCell>
        <mxCell id="Mn67_2vZST6HhARWVlX7-37" value="" style="edgeStyle=orthogonalEdgeStyle;rounded=0;orthogonalLoop=1;jettySize=auto;html=1;endArrow=none;endFill=0;" parent="1" source="Of87TxWu2fHP0NDlsVTv-1" target="Mn67_2vZST6HhARWVlX7-36" edge="1">
          <mxGeometry relative="1" as="geometry">
            <Array as="points">
              <mxPoint x="420" y="480" />
            </Array>
          </mxGeometry>
        </mxCell>
        <mxCell id="Mn67_2vZST6HhARWVlX7-41" style="edgeStyle=orthogonalEdgeStyle;rounded=0;orthogonalLoop=1;jettySize=auto;html=1;endArrow=none;endFill=0;" parent="1" source="Of87TxWu2fHP0NDlsVTv-1" target="Mn67_2vZST6HhARWVlX7-40" edge="1">
          <mxGeometry relative="1" as="geometry">
            <Array as="points">
              <mxPoint x="660" y="470" />
              <mxPoint x="660" y="470" />
            </Array>
          </mxGeometry>
        </mxCell>
        <mxCell id="Of87TxWu2fHP0NDlsVTv-1" value="Customer" style="rounded=0;whiteSpace=wrap;html=1;" parent="1" vertex="1">
          <mxGeometry x="500" y="430" width="120" height="60" as="geometry" />
        </mxCell>
        <mxCell id="Mn67_2vZST6HhARWVlX7-9" value="" style="edgeStyle=orthogonalEdgeStyle;rounded=0;orthogonalLoop=1;jettySize=auto;html=1;endArrow=none;endFill=0;" parent="1" source="Of87TxWu2fHP0NDlsVTv-2" target="Mn67_2vZST6HhARWVlX7-8" edge="1">
          <mxGeometry relative="1" as="geometry" />
        </mxCell>
        <mxCell id="Mn67_2vZST6HhARWVlX7-11" value="" style="edgeStyle=orthogonalEdgeStyle;rounded=0;orthogonalLoop=1;jettySize=auto;html=1;endArrow=none;endFill=0;" parent="1" source="Of87TxWu2fHP0NDlsVTv-2" target="Mn67_2vZST6HhARWVlX7-10" edge="1">
          <mxGeometry relative="1" as="geometry">
            <Array as="points">
              <mxPoint x="-520" y="230" />
            </Array>
          </mxGeometry>
        </mxCell>
        <mxCell id="Mn67_2vZST6HhARWVlX7-13" value="" style="edgeStyle=orthogonalEdgeStyle;rounded=0;orthogonalLoop=1;jettySize=auto;html=1;endArrow=none;endFill=0;" parent="1" source="Of87TxWu2fHP0NDlsVTv-2" target="Mn67_2vZST6HhARWVlX7-12" edge="1">
          <mxGeometry relative="1" as="geometry" />
        </mxCell>
        <mxCell id="Mn67_2vZST6HhARWVlX7-17" value="" style="edgeStyle=orthogonalEdgeStyle;rounded=0;orthogonalLoop=1;jettySize=auto;html=1;endArrow=none;endFill=0;" parent="1" source="Of87TxWu2fHP0NDlsVTv-2" target="Mn67_2vZST6HhARWVlX7-16" edge="1">
          <mxGeometry relative="1" as="geometry">
            <Array as="points">
              <mxPoint x="-450" y="200" />
              <mxPoint x="-450" y="170" />
              <mxPoint x="-550" y="170" />
            </Array>
          </mxGeometry>
        </mxCell>
        <mxCell id="Mn67_2vZST6HhARWVlX7-19" value="" style="edgeStyle=orthogonalEdgeStyle;rounded=0;orthogonalLoop=1;jettySize=auto;html=1;endArrow=none;endFill=0;" parent="1" source="Of87TxWu2fHP0NDlsVTv-2" target="Mn67_2vZST6HhARWVlX7-18" edge="1">
          <mxGeometry relative="1" as="geometry" />
        </mxCell>
        <mxCell id="Of87TxWu2fHP0NDlsVTv-2" value="Inventory" style="rounded=0;whiteSpace=wrap;html=1;" parent="1" vertex="1">
          <mxGeometry x="-440" y="180" width="120" height="60" as="geometry" />
        </mxCell>
        <mxCell id="Mn67_2vZST6HhARWVlX7-55" style="edgeStyle=orthogonalEdgeStyle;rounded=0;orthogonalLoop=1;jettySize=auto;html=1;endArrow=none;endFill=0;" parent="1" source="Of87TxWu2fHP0NDlsVTv-3" target="Mn67_2vZST6HhARWVlX7-54" edge="1">
          <mxGeometry relative="1" as="geometry" />
        </mxCell>
        <mxCell id="Mn67_2vZST6HhARWVlX7-56" value="" style="edgeStyle=orthogonalEdgeStyle;rounded=0;orthogonalLoop=1;jettySize=auto;html=1;endArrow=none;endFill=0;" parent="1" source="Of87TxWu2fHP0NDlsVTv-3" target="Mn67_2vZST6HhARWVlX7-53" edge="1">
          <mxGeometry relative="1" as="geometry" />
        </mxCell>
        <mxCell id="Of87TxWu2fHP0NDlsVTv-3" value="Department" style="rounded=0;whiteSpace=wrap;html=1;" parent="1" vertex="1">
          <mxGeometry y="570" width="120" height="60" as="geometry" />
        </mxCell>
        <mxCell id="Of87TxWu2fHP0NDlsVTv-7" value="" style="edgeStyle=orthogonalEdgeStyle;rounded=0;orthogonalLoop=1;jettySize=auto;html=1;endArrow=none;endFill=0;" parent="1" source="Of87TxWu2fHP0NDlsVTv-4" target="Of87TxWu2fHP0NDlsVTv-6" edge="1">
          <mxGeometry relative="1" as="geometry">
            <Array as="points">
              <mxPoint x="-490" y="600" />
              <mxPoint x="-490" y="600" />
            </Array>
          </mxGeometry>
        </mxCell>
        <mxCell id="Mn67_2vZST6HhARWVlX7-3" style="edgeStyle=orthogonalEdgeStyle;rounded=0;orthogonalLoop=1;jettySize=auto;html=1;endArrow=none;endFill=0;" parent="1" source="Of87TxWu2fHP0NDlsVTv-4" target="Of87TxWu2fHP0NDlsVTv-11" edge="1">
          <mxGeometry relative="1" as="geometry">
            <Array as="points">
              <mxPoint x="-400" y="540" />
              <mxPoint x="-390" y="540" />
            </Array>
          </mxGeometry>
        </mxCell>
        <mxCell id="Mn67_2vZST6HhARWVlX7-6" style="edgeStyle=orthogonalEdgeStyle;rounded=0;orthogonalLoop=1;jettySize=auto;html=1;entryX=0.5;entryY=0;entryDx=0;entryDy=0;endArrow=none;endFill=0;" parent="1" source="Of87TxWu2fHP0NDlsVTv-4" target="Mn67_2vZST6HhARWVlX7-5" edge="1">
          <mxGeometry relative="1" as="geometry">
            <Array as="points">
              <mxPoint x="-430" y="660" />
              <mxPoint x="-540" y="660" />
            </Array>
          </mxGeometry>
        </mxCell>
        <mxCell id="Mn67_2vZST6HhARWVlX7-51" style="edgeStyle=orthogonalEdgeStyle;rounded=0;orthogonalLoop=1;jettySize=auto;html=1;entryX=0;entryY=0.5;entryDx=0;entryDy=0;endArrow=none;endFill=0;startArrow=none;startFill=0;" parent="1" source="Of87TxWu2fHP0NDlsVTv-4" target="Mn67_2vZST6HhARWVlX7-50" edge="1">
          <mxGeometry relative="1" as="geometry" />
        </mxCell>
        <mxCell id="Mn67_2vZST6HhARWVlX7-89" style="edgeStyle=orthogonalEdgeStyle;rounded=0;orthogonalLoop=1;jettySize=auto;html=1;entryX=0;entryY=0.5;entryDx=0;entryDy=0;startArrow=classic;startFill=1;endArrow=none;endFill=0;" parent="1" source="Of87TxWu2fHP0NDlsVTv-4" target="Mn67_2vZST6HhARWVlX7-88" edge="1">
          <mxGeometry relative="1" as="geometry">
            <Array as="points">
              <mxPoint x="-370" y="520" />
              <mxPoint x="-310" y="520" />
              <mxPoint x="-310" y="485" />
            </Array>
          </mxGeometry>
        </mxCell>
        <mxCell id="Of87TxWu2fHP0NDlsVTv-4" value="Staff" style="rounded=0;whiteSpace=wrap;html=1;" parent="1" vertex="1">
          <mxGeometry x="-440" y="570" width="120" height="60" as="geometry" />
        </mxCell>
        <mxCell id="Mn67_2vZST6HhARWVlX7-44" value="" style="edgeStyle=orthogonalEdgeStyle;rounded=0;orthogonalLoop=1;jettySize=auto;html=1;endArrow=none;endFill=0;" parent="1" source="Of87TxWu2fHP0NDlsVTv-5" target="Mn67_2vZST6HhARWVlX7-43" edge="1">
          <mxGeometry relative="1" as="geometry" />
        </mxCell>
        <mxCell id="Mn67_2vZST6HhARWVlX7-47" style="edgeStyle=orthogonalEdgeStyle;rounded=0;orthogonalLoop=1;jettySize=auto;html=1;endArrow=none;endFill=0;" parent="1" source="Of87TxWu2fHP0NDlsVTv-5" target="Mn67_2vZST6HhARWVlX7-45" edge="1">
          <mxGeometry relative="1" as="geometry">
            <Array as="points">
              <mxPoint x="170" y="170" />
              <mxPoint x="220" y="170" />
            </Array>
          </mxGeometry>
        </mxCell>
        <mxCell id="Mn67_2vZST6HhARWVlX7-58" style="edgeStyle=orthogonalEdgeStyle;rounded=0;orthogonalLoop=1;jettySize=auto;html=1;entryX=0;entryY=0.5;entryDx=0;entryDy=0;endArrow=none;endFill=0;startArrow=none;startFill=0;" parent="1" source="Of87TxWu2fHP0NDlsVTv-5" target="Mn67_2vZST6HhARWVlX7-57" edge="1">
          <mxGeometry relative="1" as="geometry">
            <Array as="points">
              <mxPoint x="140" y="315" />
            </Array>
          </mxGeometry>
        </mxCell>
        <mxCell id="Mn67_2vZST6HhARWVlX7-61" style="edgeStyle=orthogonalEdgeStyle;rounded=0;orthogonalLoop=1;jettySize=auto;html=1;entryX=1;entryY=0.5;entryDx=0;entryDy=0;startArrow=none;startFill=0;endArrow=none;endFill=0;" parent="1" source="Of87TxWu2fHP0NDlsVTv-5" target="Mn67_2vZST6HhARWVlX7-60" edge="1">
          <mxGeometry relative="1" as="geometry" />
        </mxCell>
        <mxCell id="Of87TxWu2fHP0NDlsVTv-5" value="Invoice" style="rounded=0;whiteSpace=wrap;html=1;" parent="1" vertex="1">
          <mxGeometry x="80" y="180" width="120" height="60" as="geometry" />
        </mxCell>
        <mxCell id="Of87TxWu2fHP0NDlsVTv-6" value="First name" style="ellipse;whiteSpace=wrap;html=1;rounded=0;" parent="1" vertex="1">
          <mxGeometry x="-620" y="580" width="120" height="60" as="geometry" />
        </mxCell>
        <mxCell id="Mn67_2vZST6HhARWVlX7-86" style="edgeStyle=orthogonalEdgeStyle;rounded=0;orthogonalLoop=1;jettySize=auto;html=1;entryX=0.25;entryY=0;entryDx=0;entryDy=0;startArrow=none;startFill=0;endArrow=none;endFill=0;" parent="1" source="Of87TxWu2fHP0NDlsVTv-8" target="Of87TxWu2fHP0NDlsVTv-4" edge="1">
          <mxGeometry relative="1" as="geometry">
            <Array as="points">
              <mxPoint x="-520" y="500" />
              <mxPoint x="-410" y="500" />
            </Array>
          </mxGeometry>
        </mxCell>
        <mxCell id="Of87TxWu2fHP0NDlsVTv-8" value="&lt;u&gt;Id Number&lt;/u&gt;" style="ellipse;whiteSpace=wrap;html=1;rounded=0;" parent="1" vertex="1">
          <mxGeometry x="-580" y="420" width="120" height="60" as="geometry" />
        </mxCell>
        <mxCell id="Mn67_2vZST6HhARWVlX7-4" style="edgeStyle=orthogonalEdgeStyle;rounded=0;orthogonalLoop=1;jettySize=auto;html=1;entryX=0;entryY=0;entryDx=0;entryDy=0;endArrow=none;endFill=0;exitX=1;exitY=0.5;exitDx=0;exitDy=0;" parent="1" target="Of87TxWu2fHP0NDlsVTv-4" edge="1">
          <mxGeometry relative="1" as="geometry">
            <mxPoint x="-465" y="540" as="sourcePoint" />
            <Array as="points">
              <mxPoint x="-420" y="540" />
              <mxPoint x="-420" y="570" />
            </Array>
          </mxGeometry>
        </mxCell>
        <mxCell id="Of87TxWu2fHP0NDlsVTv-10" value="Phone Number" style="ellipse;whiteSpace=wrap;html=1;" parent="1" vertex="1">
          <mxGeometry x="-580" y="510" width="120" height="60" as="geometry" />
        </mxCell>
        <mxCell id="Of87TxWu2fHP0NDlsVTv-11" value="Last Name" style="ellipse;whiteSpace=wrap;html=1;" parent="1" vertex="1">
          <mxGeometry x="-450" y="430" width="120" height="60" as="geometry" />
        </mxCell>
        <mxCell id="Mn67_2vZST6HhARWVlX7-5" value="Employee Type" style="ellipse;whiteSpace=wrap;html=1;" parent="1" vertex="1">
          <mxGeometry x="-600" y="670" width="120" height="60" as="geometry" />
        </mxCell>
        <mxCell id="Mn67_2vZST6HhARWVlX7-8" value="&lt;u&gt;Product Code&lt;/u&gt;" style="ellipse;whiteSpace=wrap;html=1;rounded=0;" parent="1" vertex="1">
          <mxGeometry x="-640" y="180" width="120" height="60" as="geometry" />
        </mxCell>
        <mxCell id="Mn67_2vZST6HhARWVlX7-10" value="Name" style="ellipse;whiteSpace=wrap;html=1;rounded=0;" parent="1" vertex="1">
          <mxGeometry x="-580" y="270" width="120" height="60" as="geometry" />
        </mxCell>
        <mxCell id="Mn67_2vZST6HhARWVlX7-12" value="Short Description" style="ellipse;whiteSpace=wrap;html=1;rounded=0;" parent="1" vertex="1">
          <mxGeometry x="-440" y="280" width="120" height="60" as="geometry" />
        </mxCell>
        <mxCell id="Mn67_2vZST6HhARWVlX7-15" style="edgeStyle=orthogonalEdgeStyle;rounded=0;orthogonalLoop=1;jettySize=auto;html=1;entryX=0.842;entryY=1.017;entryDx=0;entryDy=0;entryPerimeter=0;endArrow=none;endFill=0;" parent="1" source="Mn67_2vZST6HhARWVlX7-14" target="Of87TxWu2fHP0NDlsVTv-2" edge="1">
          <mxGeometry relative="1" as="geometry">
            <Array as="points">
              <mxPoint x="-240" y="270" />
              <mxPoint x="-339" y="270" />
            </Array>
          </mxGeometry>
        </mxCell>
        <mxCell id="Mn67_2vZST6HhARWVlX7-14" value="Long Description" style="ellipse;whiteSpace=wrap;html=1;rounded=0;" parent="1" vertex="1">
          <mxGeometry x="-300" y="280" width="120" height="60" as="geometry" />
        </mxCell>
        <mxCell id="Mn67_2vZST6HhARWVlX7-16" value="Current Stock" style="ellipse;whiteSpace=wrap;html=1;rounded=0;" parent="1" vertex="1">
          <mxGeometry x="-610" y="100" width="120" height="60" as="geometry" />
        </mxCell>
        <mxCell id="Mn67_2vZST6HhARWVlX7-18" value="Unit Price" style="ellipse;whiteSpace=wrap;html=1;rounded=0;" parent="1" vertex="1">
          <mxGeometry x="-490" y="70" width="120" height="50" as="geometry" />
        </mxCell>
        <mxCell id="Mn67_2vZST6HhARWVlX7-22" value="&lt;u&gt;Customer ID&lt;/u&gt;" style="ellipse;whiteSpace=wrap;html=1;rounded=0;" parent="1" vertex="1">
          <mxGeometry x="500" y="530" width="120" height="60" as="geometry" />
        </mxCell>
        <mxCell id="Mn67_2vZST6HhARWVlX7-24" value="First Name" style="ellipse;whiteSpace=wrap;html=1;rounded=0;" parent="1" vertex="1">
          <mxGeometry x="650" y="500" width="120" height="60" as="geometry" />
        </mxCell>
        <mxCell id="Mn67_2vZST6HhARWVlX7-26" value="DOB" style="ellipse;whiteSpace=wrap;html=1;rounded=0;" parent="1" vertex="1">
          <mxGeometry x="650" y="370" width="120" height="60" as="geometry" />
        </mxCell>
        <mxCell id="Mn67_2vZST6HhARWVlX7-31" value="Phone Number" style="ellipse;whiteSpace=wrap;html=1;rounded=0;" parent="1" vertex="1">
          <mxGeometry x="440" y="590" width="120" height="60" as="geometry" />
        </mxCell>
        <mxCell id="Mn67_2vZST6HhARWVlX7-33" value="Email" style="ellipse;whiteSpace=wrap;html=1;rounded=0;" parent="1" vertex="1">
          <mxGeometry x="580" y="310" width="120" height="60" as="geometry" />
        </mxCell>
        <mxCell id="Mn67_2vZST6HhARWVlX7-36" value="Date of Membership" style="ellipse;whiteSpace=wrap;html=1;rounded=0;" parent="1" vertex="1">
          <mxGeometry x="360" y="510" width="120" height="60" as="geometry" />
        </mxCell>
        <mxCell id="Mn67_2vZST6HhARWVlX7-39" style="edgeStyle=orthogonalEdgeStyle;rounded=0;orthogonalLoop=1;jettySize=auto;html=1;entryX=0;entryY=0.5;entryDx=0;entryDy=0;endArrow=none;endFill=0;" parent="1" source="Mn67_2vZST6HhARWVlX7-38" target="Of87TxWu2fHP0NDlsVTv-1" edge="1">
          <mxGeometry relative="1" as="geometry">
            <Array as="points">
              <mxPoint x="500" y="470" />
            </Array>
          </mxGeometry>
        </mxCell>
        <mxCell id="Mn67_2vZST6HhARWVlX7-38" value="Date of Membership&lt;br&gt;Expiry" style="ellipse;whiteSpace=wrap;html=1;rounded=0;" parent="1" vertex="1">
          <mxGeometry x="240" y="460" width="140" height="60" as="geometry" />
        </mxCell>
        <mxCell id="Mn67_2vZST6HhARWVlX7-40" value="Last Name" style="ellipse;whiteSpace=wrap;html=1;rounded=0;" parent="1" vertex="1">
          <mxGeometry x="760" y="440" width="120" height="60" as="geometry" />
        </mxCell>
        <mxCell id="Mn67_2vZST6HhARWVlX7-43" value="Invoice num" style="ellipse;whiteSpace=wrap;html=1;rounded=0;fontStyle=4" parent="1" vertex="1">
          <mxGeometry x="80" y="90" width="120" height="60" as="geometry" />
        </mxCell>
        <mxCell id="Mn67_2vZST6HhARWVlX7-45" value="Billing Date&lt;span style=&quot;color: rgba(0 , 0 , 0 , 0) ; font-family: monospace ; font-size: 0px&quot;&gt;%3CmxGraphModel%3E%3Croot%3E%3CmxCell%20id%3D%220%22%2F%3E%3CmxCell%20id%3D%221%22%20parent%3D%220%22%2F%3E%3CmxCell%20id%3D%222%22%20value%3D%22Invoice%20num%22%20style%3D%22ellipse%3BwhiteSpace%3Dwrap%3Bhtml%3D1%3Brounded%3D0%3B%22%20vertex%3D%221%22%20parent%3D%221%22%3E%3CmxGeometry%20x%3D%2260%22%20width%3D%22120%22%20height%3D%2260%22%20as%3D%22geometry%22%2F%3E%3C%2FmxCell%3E%3C%2Froot%3E%3C%2FmxGraphModel%3E&lt;/span&gt;" style="ellipse;whiteSpace=wrap;html=1;rounded=0;" parent="1" vertex="1">
          <mxGeometry x="200" y="100" width="120" height="60" as="geometry" />
        </mxCell>
        <mxCell id="Mn67_2vZST6HhARWVlX7-46" value="Item Quantity" style="ellipse;whiteSpace=wrap;html=1;rounded=0;" parent="1" vertex="1">
          <mxGeometry x="-165" y="330" width="120" height="60" as="geometry" />
        </mxCell>
        <mxCell id="Mn67_2vZST6HhARWVlX7-52" style="edgeStyle=orthogonalEdgeStyle;rounded=0;orthogonalLoop=1;jettySize=auto;html=1;entryX=0;entryY=0.5;entryDx=0;entryDy=0;endArrow=classic;endFill=1;" parent="1" source="Mn67_2vZST6HhARWVlX7-50" target="Of87TxWu2fHP0NDlsVTv-3" edge="1">
          <mxGeometry relative="1" as="geometry" />
        </mxCell>
        <mxCell id="Mn67_2vZST6HhARWVlX7-50" value="Is a &lt;br&gt;member of" style="rhombus;whiteSpace=wrap;html=1;fillColor=none;" parent="1" vertex="1">
          <mxGeometry x="-230" y="555" width="100" height="90" as="geometry" />
        </mxCell>
        <mxCell id="Mn67_2vZST6HhARWVlX7-53" value="Department Code" style="ellipse;whiteSpace=wrap;html=1;rounded=0;fontStyle=4" parent="1" vertex="1">
          <mxGeometry y="660" width="120" height="60" as="geometry" />
        </mxCell>
        <mxCell id="Mn67_2vZST6HhARWVlX7-54" value="Name" style="ellipse;whiteSpace=wrap;html=1;rounded=0;" parent="1" vertex="1">
          <mxGeometry x="170" y="570" width="120" height="60" as="geometry" />
        </mxCell>
        <mxCell id="Mn67_2vZST6HhARWVlX7-59" style="edgeStyle=orthogonalEdgeStyle;rounded=0;orthogonalLoop=1;jettySize=auto;html=1;endArrow=classic;endFill=1;startArrow=none;startFill=0;" parent="1" source="Mn67_2vZST6HhARWVlX7-57" target="Of87TxWu2fHP0NDlsVTv-1" edge="1">
          <mxGeometry relative="1" as="geometry" />
        </mxCell>
        <mxCell id="Mn67_2vZST6HhARWVlX7-57" value="is attached &lt;br&gt;to" style="rhombus;whiteSpace=wrap;html=1;fillColor=none;" parent="1" vertex="1">
          <mxGeometry x="270" y="270" width="100" height="90" as="geometry" />
        </mxCell>
        <mxCell id="Mn67_2vZST6HhARWVlX7-62" style="edgeStyle=orthogonalEdgeStyle;rounded=0;orthogonalLoop=1;jettySize=auto;html=1;startArrow=none;startFill=0;endArrow=none;endFill=0;" parent="1" source="Mn67_2vZST6HhARWVlX7-60" target="Of87TxWu2fHP0NDlsVTv-2" edge="1">
          <mxGeometry relative="1" as="geometry" />
        </mxCell>
        <mxCell id="Mn67_2vZST6HhARWVlX7-84" style="edgeStyle=orthogonalEdgeStyle;rounded=0;orthogonalLoop=1;jettySize=auto;html=1;entryX=0.5;entryY=0;entryDx=0;entryDy=0;startArrow=none;startFill=0;endArrow=none;endFill=0;" parent="1" source="Mn67_2vZST6HhARWVlX7-60" target="Mn67_2vZST6HhARWVlX7-46" edge="1">
          <mxGeometry relative="1" as="geometry" />
        </mxCell>
        <mxCell id="Mn67_2vZST6HhARWVlX7-60" value="Contains" style="rhombus;whiteSpace=wrap;html=1;fillColor=none;" parent="1" vertex="1">
          <mxGeometry x="-145" y="170" width="80" height="80" as="geometry" />
        </mxCell>
        <mxCell id="Mn67_2vZST6HhARWVlX7-82" value="" style="endArrow=none;html=1;rounded=0;entryX=-0.002;entryY=0.586;entryDx=0;entryDy=0;exitX=0.962;exitY=0.551;exitDx=0;exitDy=0;exitPerimeter=0;entryPerimeter=0;" parent="1" source="Mn67_2vZST6HhARWVlX7-60" target="Of87TxWu2fHP0NDlsVTv-5" edge="1">
          <mxGeometry width="50" height="50" relative="1" as="geometry">
            <mxPoint x="-170" y="240" as="sourcePoint" />
            <mxPoint x="-120" y="190" as="targetPoint" />
          </mxGeometry>
        </mxCell>
        <mxCell id="Mn67_2vZST6HhARWVlX7-90" style="edgeStyle=orthogonalEdgeStyle;rounded=0;orthogonalLoop=1;jettySize=auto;html=1;entryX=0.25;entryY=1;entryDx=0;entryDy=0;startArrow=none;startFill=0;endArrow=none;endFill=0;" parent="1" source="Mn67_2vZST6HhARWVlX7-88" target="Of87TxWu2fHP0NDlsVTv-5" edge="1">
          <mxGeometry relative="1" as="geometry" />
        </mxCell>
        <mxCell id="Mn67_2vZST6HhARWVlX7-88" value="is attached &lt;br&gt;to" style="rhombus;whiteSpace=wrap;html=1;fillColor=none;" parent="1" vertex="1">
          <mxGeometry x="-245" y="440" width="100" height="90" as="geometry" />
        </mxCell>
        <mxCell id="VF3IUecLIjE7ZrdROc6l-2" style="edgeStyle=orthogonalEdgeStyle;rounded=0;orthogonalLoop=1;jettySize=auto;html=1;entryX=0.833;entryY=0;entryDx=0;entryDy=0;entryPerimeter=0;endArrow=none;endFill=0;" parent="1" source="VF3IUecLIjE7ZrdROc6l-1" target="Of87TxWu2fHP0NDlsVTv-2" edge="1">
          <mxGeometry relative="1" as="geometry" />
        </mxCell>
        <mxCell id="VF3IUecLIjE7ZrdROc6l-1" value="Expiry date" style="ellipse;whiteSpace=wrap;html=1;rounded=0;" parent="1" vertex="1">
          <mxGeometry x="-350" y="70" width="120" height="50" as="geometry" />
        </mxCell>
        <mxCell id="bo704RG8dfUo9mYpPyE9-1" style="edgeStyle=orthogonalEdgeStyle;rounded=0;orthogonalLoop=1;jettySize=auto;html=1;startArrow=none;startFill=0;endArrow=none;endFill=0;entryX=0.99;entryY=0.59;entryDx=0;entryDy=0;entryPerimeter=0;exitX=0.059;exitY=0.568;exitDx=0;exitDy=0;exitPerimeter=0;" parent="1" source="Mn67_2vZST6HhARWVlX7-60" target="Of87TxWu2fHP0NDlsVTv-2" edge="1">
          <mxGeometry relative="1" as="geometry">
            <mxPoint x="-135" y="220" as="sourcePoint" />
            <mxPoint x="-310" y="220" as="targetPoint" />
          </mxGeometry>
        </mxCell>
        <mxCell id="bo704RG8dfUo9mYpPyE9-2" style="edgeStyle=orthogonalEdgeStyle;rounded=0;orthogonalLoop=1;jettySize=auto;html=1;endArrow=none;endFill=0;startArrow=none;startFill=0;exitX=0.583;exitY=1;exitDx=0;exitDy=0;exitPerimeter=0;entryX=0.058;entryY=0.437;entryDx=0;entryDy=0;entryPerimeter=0;" parent="1" source="Of87TxWu2fHP0NDlsVTv-5" target="Mn67_2vZST6HhARWVlX7-57" edge="1">
          <mxGeometry relative="1" as="geometry">
            <Array as="points">
              <mxPoint x="150" y="309" />
            </Array>
            <mxPoint x="140" y="250" as="sourcePoint" />
            <mxPoint x="270" y="310" as="targetPoint" />
          </mxGeometry>
        </mxCell>
        <mxCell id="bo704RG8dfUo9mYpPyE9-3" style="edgeStyle=orthogonalEdgeStyle;rounded=0;orthogonalLoop=1;jettySize=auto;html=1;entryX=0.292;entryY=0.999;entryDx=0;entryDy=0;startArrow=none;startFill=0;endArrow=none;endFill=0;exitX=0.936;exitY=0.569;exitDx=0;exitDy=0;exitPerimeter=0;entryPerimeter=0;" parent="1" source="Mn67_2vZST6HhARWVlX7-88" target="Of87TxWu2fHP0NDlsVTv-5" edge="1">
          <mxGeometry relative="1" as="geometry">
            <mxPoint x="-135" y="495" as="sourcePoint" />
            <mxPoint x="120" y="250" as="targetPoint" />
          </mxGeometry>
        </mxCell>
        <mxCell id="bo704RG8dfUo9mYpPyE9-5" style="edgeStyle=orthogonalEdgeStyle;rounded=0;orthogonalLoop=1;jettySize=auto;html=1;entryX=0.03;entryY=0.533;entryDx=0;entryDy=0;endArrow=none;endFill=0;startArrow=none;startFill=0;entryPerimeter=0;exitX=0.993;exitY=0.554;exitDx=0;exitDy=0;exitPerimeter=0;" parent="1" source="Of87TxWu2fHP0NDlsVTv-4" target="Mn67_2vZST6HhARWVlX7-50" edge="1">
          <mxGeometry relative="1" as="geometry">
            <mxPoint x="-320" y="609.83" as="sourcePoint" />
            <mxPoint x="-230" y="609.83" as="targetPoint" />
          </mxGeometry>
        </mxCell>
        <mxCell id="1C8zZeLDvb72MBfbO7-8-3" value="" style="edgeStyle=orthogonalEdgeStyle;rounded=0;orthogonalLoop=1;jettySize=auto;html=1;endArrow=none;endFill=0;" parent="1" source="1C8zZeLDvb72MBfbO7-8-1" target="1C8zZeLDvb72MBfbO7-8-2" edge="1">
          <mxGeometry relative="1" as="geometry" />
        </mxCell>
        <mxCell id="1C8zZeLDvb72MBfbO7-8-5" value="" style="edgeStyle=orthogonalEdgeStyle;rounded=0;orthogonalLoop=1;jettySize=auto;html=1;endArrow=none;endFill=0;" parent="1" source="1C8zZeLDvb72MBfbO7-8-1" target="1C8zZeLDvb72MBfbO7-8-4" edge="1">
          <mxGeometry relative="1" as="geometry">
            <Array as="points">
              <mxPoint x="-210" y="-140" />
              <mxPoint x="-290" y="-140" />
            </Array>
          </mxGeometry>
        </mxCell>
        <mxCell id="1C8zZeLDvb72MBfbO7-8-1" value="InvenCategory" style="rounded=0;whiteSpace=wrap;html=1;" parent="1" vertex="1">
          <mxGeometry x="-230" y="-130" width="120" height="60" as="geometry" />
        </mxCell>
        <mxCell id="1C8zZeLDvb72MBfbO7-8-2" value="&lt;u&gt;Category ID&lt;/u&gt;" style="ellipse;whiteSpace=wrap;html=1;rounded=0;" parent="1" vertex="1">
          <mxGeometry x="-230" y="-270" width="120" height="60" as="geometry" />
        </mxCell>
        <mxCell id="1C8zZeLDvb72MBfbO7-8-4" value="Name" style="ellipse;whiteSpace=wrap;html=1;rounded=0;" parent="1" vertex="1">
          <mxGeometry x="-350" y="-230" width="120" height="60" as="geometry" />
        </mxCell>
        <mxCell id="1C8zZeLDvb72MBfbO7-8-8" style="edgeStyle=orthogonalEdgeStyle;rounded=0;orthogonalLoop=1;jettySize=auto;html=1;entryX=1;entryY=0.25;entryDx=0;entryDy=0;endArrow=none;endFill=0;" parent="1" source="1C8zZeLDvb72MBfbO7-8-7" target="Of87TxWu2fHP0NDlsVTv-2" edge="1">
          <mxGeometry relative="1" as="geometry">
            <Array as="points">
              <mxPoint x="-180" y="195" />
            </Array>
          </mxGeometry>
        </mxCell>
        <mxCell id="1C8zZeLDvb72MBfbO7-8-9" style="edgeStyle=orthogonalEdgeStyle;rounded=0;orthogonalLoop=1;jettySize=auto;html=1;entryX=0.418;entryY=0.996;entryDx=0;entryDy=0;entryPerimeter=0;endArrow=classic;endFill=1;" parent="1" source="1C8zZeLDvb72MBfbO7-8-7" target="1C8zZeLDvb72MBfbO7-8-1" edge="1">
          <mxGeometry relative="1" as="geometry" />
        </mxCell>
        <mxCell id="1C8zZeLDvb72MBfbO7-8-7" value="Contains" style="rhombus;whiteSpace=wrap;html=1;fillColor=none;" parent="1" vertex="1">
          <mxGeometry x="-220" y="10" width="80" height="80" as="geometry" />
        </mxCell>
        <mxCell id="1C8zZeLDvb72MBfbO7-8-10" style="edgeStyle=orthogonalEdgeStyle;rounded=0;orthogonalLoop=1;jettySize=auto;html=1;entryX=1;entryY=0.25;entryDx=0;entryDy=0;endArrow=none;endFill=0;exitX=0.547;exitY=0.955;exitDx=0;exitDy=0;exitPerimeter=0;" parent="1" source="1C8zZeLDvb72MBfbO7-8-7" edge="1">
          <mxGeometry relative="1" as="geometry">
            <mxPoint x="-170" y="90" as="sourcePoint" />
            <mxPoint x="-320" y="195" as="targetPoint" />
            <Array as="points">
              <mxPoint x="-176" y="200" />
              <mxPoint x="-320" y="200" />
            </Array>
          </mxGeometry>
        </mxCell>
      </root>
    </mxGraphModel>
  </diagram>
  <diagram id="VV43z1pa6nRfze3uEl9A" name="UML DIAGRAM">
    <mxGraphModel dx="1754" dy="2122" grid="1" gridSize="10" guides="1" tooltips="1" connect="1" arrows="1" fold="1" page="1" pageScale="1" pageWidth="850" pageHeight="1100" math="0" shadow="0">
      <root>
        <mxCell id="0" />
        <mxCell id="1" parent="0" />
        <mxCell id="ucu8to-rhaoiOyb4Yj-d-1" value="Customer" style="swimlane;fontStyle=0;childLayout=stackLayout;horizontal=1;startSize=26;fillColor=none;horizontalStack=0;resizeParent=1;resizeParentMax=0;resizeLast=0;collapsible=1;marginBottom=0;" parent="1" vertex="1">
          <mxGeometry x="370" y="-446" width="240" height="690" as="geometry" />
        </mxCell>
        <mxCell id="ucu8to-rhaoiOyb4Yj-d-2" value="+ fName: String" style="text;strokeColor=none;fillColor=none;align=left;verticalAlign=top;spacingLeft=4;spacingRight=4;overflow=hidden;rotatable=0;points=[[0,0.5],[1,0.5]];portConstraint=eastwest;" parent="ucu8to-rhaoiOyb4Yj-d-1" vertex="1">
          <mxGeometry y="26" width="240" height="26" as="geometry" />
        </mxCell>
        <mxCell id="ucu8to-rhaoiOyb4Yj-d-3" value="+ lName: String" style="text;strokeColor=none;fillColor=none;align=left;verticalAlign=top;spacingLeft=4;spacingRight=4;overflow=hidden;rotatable=0;points=[[0,0.5],[1,0.5]];portConstraint=eastwest;" parent="ucu8to-rhaoiOyb4Yj-d-1" vertex="1">
          <mxGeometry y="52" width="240" height="26" as="geometry" />
        </mxCell>
        <mxCell id="ucu8to-rhaoiOyb4Yj-d-4" value="+ dob: String &#xa;&#xa;+ telephoneNum : String&#xa;&#xa;+ email : String &#xa;&#xa;+ dateOfmembership: String&#xa;&#xa;+ getCustomer() : String &#xa;&#xa;+setCustomer() : String &#xa;&#xa;+getfName() : String &#xa;&#xa;+setfName() : String &#xa;&#xa;+getlName() : String &#xa;&#xa;+setlName() : String &#xa;&#xa;+getDob() : String &#xa;&#xa;+setDob() : String &#xa;&#xa;+getTelephoneNumber() : String &#xa;&#xa;+setTelephoneNumber() : String&#xa;&#xa;+getEmail() : String &#xa;&#xa;+setEmail() : String   &#xa;&#xa;+getDateOfMembership() : String&#xa;&#xa;+setDateOfMembership() : String &#xa;&#xa;+getDateOfMembershipExpiry() : String  &#xa;&#xa;+setDateOfMembershipExpiry() : String &#xa;&#xa;+Stringto String &#xa;" style="text;strokeColor=none;fillColor=none;align=left;verticalAlign=top;spacingLeft=4;spacingRight=4;overflow=hidden;rotatable=0;points=[[0,0.5],[1,0.5]];portConstraint=eastwest;" parent="ucu8to-rhaoiOyb4Yj-d-1" vertex="1">
          <mxGeometry y="78" width="240" height="612" as="geometry" />
        </mxCell>
        <mxCell id="ucu8to-rhaoiOyb4Yj-d-9" value="Department " style="swimlane;fontStyle=0;childLayout=stackLayout;horizontal=1;startSize=26;fillColor=none;horizontalStack=0;resizeParent=1;resizeParentMax=0;resizeLast=0;collapsible=1;marginBottom=0;" parent="1" vertex="1">
          <mxGeometry x="-120" y="-260" width="180" height="250" as="geometry" />
        </mxCell>
        <mxCell id="ucu8to-rhaoiOyb4Yj-d-10" value="+ department: String " style="text;strokeColor=none;fillColor=none;align=left;verticalAlign=top;spacingLeft=4;spacingRight=4;overflow=hidden;rotatable=0;points=[[0,0.5],[1,0.5]];portConstraint=eastwest;" parent="ucu8to-rhaoiOyb4Yj-d-9" vertex="1">
          <mxGeometry y="26" width="180" height="26" as="geometry" />
        </mxCell>
        <mxCell id="ucu8to-rhaoiOyb4Yj-d-11" value="+ name: String&#xa;&#xa;+getDepartmentCode() : String&#xa;&#xa;+setDepartmentCode() : String &#xa;&#xa;+getName() : String &#xa;&#xa;+setName() : String &#xa;&#xa;+Stringto String   " style="text;strokeColor=none;fillColor=none;align=left;verticalAlign=top;spacingLeft=4;spacingRight=4;overflow=hidden;rotatable=0;points=[[0,0.5],[1,0.5]];portConstraint=eastwest;" parent="ucu8to-rhaoiOyb4Yj-d-9" vertex="1">
          <mxGeometry y="52" width="180" height="198" as="geometry" />
        </mxCell>
        <mxCell id="ucu8to-rhaoiOyb4Yj-d-13" value="InvoiceItem" style="swimlane;fontStyle=0;childLayout=stackLayout;horizontal=1;startSize=26;fillColor=none;horizontalStack=0;resizeParent=1;resizeParentMax=0;resizeLast=0;collapsible=1;marginBottom=0;" parent="1" vertex="1">
          <mxGeometry x="-60" y="1030" width="190" height="310" as="geometry" />
        </mxCell>
        <mxCell id="ucu8to-rhaoiOyb4Yj-d-14" value="+ productCode: String" style="text;strokeColor=none;fillColor=none;align=left;verticalAlign=top;spacingLeft=4;spacingRight=4;overflow=hidden;rotatable=0;points=[[0,0.5],[1,0.5]];portConstraint=eastwest;" parent="ucu8to-rhaoiOyb4Yj-d-13" vertex="1">
          <mxGeometry y="26" width="190" height="26" as="geometry" />
        </mxCell>
        <mxCell id="ucu8to-rhaoiOyb4Yj-d-15" value="+ invoiceNum: int" style="text;strokeColor=none;fillColor=none;align=left;verticalAlign=top;spacingLeft=4;spacingRight=4;overflow=hidden;rotatable=0;points=[[0,0.5],[1,0.5]];portConstraint=eastwest;" parent="ucu8to-rhaoiOyb4Yj-d-13" vertex="1">
          <mxGeometry y="52" width="190" height="26" as="geometry" />
        </mxCell>
        <mxCell id="ucu8to-rhaoiOyb4Yj-d-16" value="+ itemQuantity: int&#xa;&#xa;+getProductCode() : String &#xa;&#xa;+setProductCode() : String &#xa;&#xa;+getInvoiceNum() : String&#xa;&#xa;+setInvoiceNum() : String &#xa;&#xa;+getItemQuantity() : String &#xa;&#xa;+setItemQuantity() : String &#xa;&#xa;+Stringto String " style="text;strokeColor=none;fillColor=none;align=left;verticalAlign=top;spacingLeft=4;spacingRight=4;overflow=hidden;rotatable=0;points=[[0,0.5],[1,0.5]];portConstraint=eastwest;" parent="ucu8to-rhaoiOyb4Yj-d-13" vertex="1">
          <mxGeometry y="78" width="190" height="232" as="geometry" />
        </mxCell>
        <mxCell id="ucu8to-rhaoiOyb4Yj-d-17" value="Inventory" style="swimlane;fontStyle=0;childLayout=stackLayout;horizontal=1;startSize=26;fillColor=none;horizontalStack=0;resizeParent=1;resizeParentMax=0;resizeLast=0;collapsible=1;marginBottom=0;" parent="1" vertex="1">
          <mxGeometry x="390" y="440" width="180" height="620" as="geometry" />
        </mxCell>
        <mxCell id="ucu8to-rhaoiOyb4Yj-d-18" value="+ productCode: String " style="text;strokeColor=none;fillColor=none;align=left;verticalAlign=top;spacingLeft=4;spacingRight=4;overflow=hidden;rotatable=0;points=[[0,0.5],[1,0.5]];portConstraint=eastwest;" parent="ucu8to-rhaoiOyb4Yj-d-17" vertex="1">
          <mxGeometry y="26" width="180" height="26" as="geometry" />
        </mxCell>
        <mxCell id="ucu8to-rhaoiOyb4Yj-d-19" value="+ name: String" style="text;strokeColor=none;fillColor=none;align=left;verticalAlign=top;spacingLeft=4;spacingRight=4;overflow=hidden;rotatable=0;points=[[0,0.5],[1,0.5]];portConstraint=eastwest;" parent="ucu8to-rhaoiOyb4Yj-d-17" vertex="1">
          <mxGeometry y="52" width="180" height="26" as="geometry" />
        </mxCell>
        <mxCell id="ucu8to-rhaoiOyb4Yj-d-20" value="+ shortDescrip: String&#xa;&#xa;+  stock : int&#xa;&#xa;+unitPrice float&#xa;&#xa;+categoryID : String&#xa;&#xa;+getProductCode() : String &#xa;&#xa;+setProductCode() : String &#xa;&#xa;+getName() : String &#xa;&#xa;+setgetName() : String &#xa;&#xa;+getShortDescrip() : String &#xa;&#xa;+setShortDescrip() : String &#xa;&#xa;+getLongDescrip() : String &#xa;&#xa;+setLongDescrip() : String&#xa;&#xa;+getStock() : String &#xa;&#xa;+setStock() : String &#xa;&#xa;+getUnitPrice() : String &#xa;&#xa;+setUnitPrice() : String &#xa;&#xa;+getCategoryID() : String &#xa;&#xa;+setCategoryID() : Sting &#xa;&#xa;+Stringto String &#xa;&#xa;&#xa;&#xa;  " style="text;strokeColor=none;fillColor=none;align=left;verticalAlign=top;spacingLeft=4;spacingRight=4;overflow=hidden;rotatable=0;points=[[0,0.5],[1,0.5]];portConstraint=eastwest;" parent="ucu8to-rhaoiOyb4Yj-d-17" vertex="1">
          <mxGeometry y="78" width="180" height="542" as="geometry" />
        </mxCell>
        <mxCell id="ucu8to-rhaoiOyb4Yj-d-21" value="Invoice " style="swimlane;fontStyle=0;childLayout=stackLayout;horizontal=1;startSize=26;fillColor=none;horizontalStack=0;resizeParent=1;resizeParentMax=0;resizeLast=0;collapsible=1;marginBottom=0;" parent="1" vertex="1">
          <mxGeometry x="650" y="450" width="200" height="380" as="geometry" />
        </mxCell>
        <mxCell id="ucu8to-rhaoiOyb4Yj-d-22" value="+ invoiceNum: int" style="text;strokeColor=none;fillColor=none;align=left;verticalAlign=top;spacingLeft=4;spacingRight=4;overflow=hidden;rotatable=0;points=[[0,0.5],[1,0.5]];portConstraint=eastwest;" parent="ucu8to-rhaoiOyb4Yj-d-21" vertex="1">
          <mxGeometry y="26" width="200" height="26" as="geometry" />
        </mxCell>
        <mxCell id="ucu8to-rhaoiOyb4Yj-d-23" value="+ billingDate: String" style="text;strokeColor=none;fillColor=none;align=left;verticalAlign=top;spacingLeft=4;spacingRight=4;overflow=hidden;rotatable=0;points=[[0,0.5],[1,0.5]];portConstraint=eastwest;" parent="ucu8to-rhaoiOyb4Yj-d-21" vertex="1">
          <mxGeometry y="52" width="200" height="26" as="geometry" />
        </mxCell>
        <mxCell id="ucu8to-rhaoiOyb4Yj-d-24" value="+ staffID: int&#xa;&#xa;+getInvoiceNum() : String &#xa;&#xa;+setInvoiceNum() : String &#xa;&#xa;+getBillingDate() : String &#xa;&#xa;+setBillingDate() : String&#xa;&#xa;+getCustomerID() : Sting &#xa;&#xa;+setCustomerID() : String &#xa;&#xa;+getStaffID() : String &#xa;&#xa;+setStaffID() : String &#xa;&#xa;+Stringto String " style="text;strokeColor=none;fillColor=none;align=left;verticalAlign=top;spacingLeft=4;spacingRight=4;overflow=hidden;rotatable=0;points=[[0,0.5],[1,0.5]];portConstraint=eastwest;" parent="ucu8to-rhaoiOyb4Yj-d-21" vertex="1">
          <mxGeometry y="78" width="200" height="302" as="geometry" />
        </mxCell>
        <mxCell id="ucu8to-rhaoiOyb4Yj-d-29" value="DBEntitiy" style="swimlane;fontStyle=0;childLayout=stackLayout;horizontal=1;startSize=26;fillColor=none;horizontalStack=0;resizeParent=1;resizeParentMax=0;resizeLast=0;collapsible=1;marginBottom=0;" parent="1" vertex="1">
          <mxGeometry x="60" y="110" width="140" height="104" as="geometry" />
        </mxCell>
        <mxCell id="ucu8to-rhaoiOyb4Yj-d-30" value="- action : String &#xa;" style="text;strokeColor=none;fillColor=none;align=left;verticalAlign=top;spacingLeft=4;spacingRight=4;overflow=hidden;rotatable=0;points=[[0,0.5],[1,0.5]];portConstraint=eastwest;" parent="ucu8to-rhaoiOyb4Yj-d-29" vertex="1">
          <mxGeometry y="26" width="140" height="26" as="geometry" />
        </mxCell>
        <mxCell id="ucu8to-rhaoiOyb4Yj-d-31" value="+ getAction () : String " style="text;strokeColor=none;fillColor=none;align=left;verticalAlign=top;spacingLeft=4;spacingRight=4;overflow=hidden;rotatable=0;points=[[0,0.5],[1,0.5]];portConstraint=eastwest;" parent="ucu8to-rhaoiOyb4Yj-d-29" vertex="1">
          <mxGeometry y="52" width="140" height="26" as="geometry" />
        </mxCell>
        <mxCell id="ucu8to-rhaoiOyb4Yj-d-32" value="+ setAction () : String " style="text;strokeColor=none;fillColor=none;align=left;verticalAlign=top;spacingLeft=4;spacingRight=4;overflow=hidden;rotatable=0;points=[[0,0.5],[1,0.5]];portConstraint=eastwest;" parent="ucu8to-rhaoiOyb4Yj-d-29" vertex="1">
          <mxGeometry y="78" width="140" height="26" as="geometry" />
        </mxCell>
        <mxCell id="ucu8to-rhaoiOyb4Yj-d-37" value="Server " style="swimlane;fontStyle=0;childLayout=stackLayout;horizontal=1;startSize=26;fillColor=none;horizontalStack=0;resizeParent=1;resizeParentMax=0;resizeLast=0;collapsible=1;marginBottom=0;" parent="1" vertex="1">
          <mxGeometry x="-600" y="120" width="180" height="142" as="geometry" />
        </mxCell>
        <mxCell id="ucu8to-rhaoiOyb4Yj-d-38" value="+ severScoket: serverSocket" style="text;strokeColor=none;fillColor=none;align=left;verticalAlign=top;spacingLeft=4;spacingRight=4;overflow=hidden;rotatable=0;points=[[0,0.5],[1,0.5]];portConstraint=eastwest;" parent="ucu8to-rhaoiOyb4Yj-d-37" vertex="1">
          <mxGeometry y="26" width="180" height="26" as="geometry" />
        </mxCell>
        <mxCell id="ucu8to-rhaoiOyb4Yj-d-39" value="+ socket : connectionsocket" style="text;strokeColor=none;fillColor=none;align=left;verticalAlign=top;spacingLeft=4;spacingRight=4;overflow=hidden;rotatable=0;points=[[0,0.5],[1,0.5]];portConstraint=eastwest;" parent="ucu8to-rhaoiOyb4Yj-d-37" vertex="1">
          <mxGeometry y="52" width="180" height="26" as="geometry" />
        </mxCell>
        <mxCell id="ucu8to-rhaoiOyb4Yj-d-40" value="+ objectOutputStream: objOs&#xa;&#xa;- objectInputStream : ojIs" style="text;strokeColor=none;fillColor=none;align=left;verticalAlign=top;spacingLeft=4;spacingRight=4;overflow=hidden;rotatable=0;points=[[0,0.5],[1,0.5]];portConstraint=eastwest;" parent="ucu8to-rhaoiOyb4Yj-d-37" vertex="1">
          <mxGeometry y="78" width="180" height="64" as="geometry" />
        </mxCell>
        <mxCell id="ucu8to-rhaoiOyb4Yj-d-41" value="Client" style="swimlane;fontStyle=0;childLayout=stackLayout;horizontal=1;startSize=26;fillColor=none;horizontalStack=0;resizeParent=1;resizeParentMax=0;resizeLast=0;collapsible=1;marginBottom=0;" parent="1" vertex="1">
          <mxGeometry x="-590" width="170" height="78" as="geometry" />
        </mxCell>
        <mxCell id="ucu8to-rhaoiOyb4Yj-d-42" value="+ objectInputStream : ojIs" style="text;strokeColor=none;fillColor=none;align=left;verticalAlign=top;spacingLeft=4;spacingRight=4;overflow=hidden;rotatable=0;points=[[0,0.5],[1,0.5]];portConstraint=eastwest;" parent="ucu8to-rhaoiOyb4Yj-d-41" vertex="1">
          <mxGeometry y="26" width="170" height="26" as="geometry" />
        </mxCell>
        <mxCell id="ucu8to-rhaoiOyb4Yj-d-43" value="+ Socket : connectionSocket" style="text;strokeColor=none;fillColor=none;align=left;verticalAlign=top;spacingLeft=4;spacingRight=4;overflow=hidden;rotatable=0;points=[[0,0.5],[1,0.5]];portConstraint=eastwest;" parent="ucu8to-rhaoiOyb4Yj-d-41" vertex="1">
          <mxGeometry y="52" width="170" height="26" as="geometry" />
        </mxCell>
        <mxCell id="MXB-_Y3ytzqO5Ki6UmAs-5" value="Extends" style="endArrow=block;endSize=16;endFill=0;html=1;rounded=0;" parent="1" edge="1">
          <mxGeometry width="160" relative="1" as="geometry">
            <mxPoint x="370" y="170" as="sourcePoint" />
            <mxPoint x="200" y="170" as="targetPoint" />
          </mxGeometry>
        </mxCell>
        <mxCell id="MXB-_Y3ytzqO5Ki6UmAs-7" value="Extends" style="endArrow=block;endSize=16;endFill=0;html=1;rounded=0;exitX=0.5;exitY=0;exitDx=0;exitDy=0;" parent="1" source="ucu8to-rhaoiOyb4Yj-d-21" edge="1">
          <mxGeometry width="160" relative="1" as="geometry">
            <mxPoint x="430" y="370" as="sourcePoint" />
            <mxPoint x="200" y="210" as="targetPoint" />
            <Array as="points">
              <mxPoint x="750" y="320" />
              <mxPoint x="200" y="320" />
            </Array>
          </mxGeometry>
        </mxCell>
        <mxCell id="MXB-_Y3ytzqO5Ki6UmAs-14" value="Extends" style="endArrow=block;endSize=16;endFill=0;html=1;rounded=0;entryX=0.448;entryY=1.093;entryDx=0;entryDy=0;entryPerimeter=0;" parent="1" target="ucu8to-rhaoiOyb4Yj-d-32" edge="1">
          <mxGeometry width="160" relative="1" as="geometry">
            <mxPoint x="390" y="470" as="sourcePoint" />
            <mxPoint x="130" y="220" as="targetPoint" />
            <Array as="points">
              <mxPoint x="123" y="470" />
            </Array>
          </mxGeometry>
        </mxCell>
        <mxCell id="MXB-_Y3ytzqO5Ki6UmAs-15" value="Extends" style="endArrow=block;endSize=16;endFill=0;html=1;rounded=0;entryX=0.134;entryY=0.962;entryDx=0;entryDy=0;entryPerimeter=0;" parent="1" target="ucu8to-rhaoiOyb4Yj-d-32" edge="1">
          <mxGeometry width="160" relative="1" as="geometry">
            <mxPoint x="79" y="1030" as="sourcePoint" />
            <mxPoint x="400" y="860" as="targetPoint" />
            <Array as="points">
              <mxPoint x="79" y="893" />
              <mxPoint x="79" y="620" />
            </Array>
          </mxGeometry>
        </mxCell>
        <mxCell id="MXB-_Y3ytzqO5Ki6UmAs-18" value="Extends" style="endArrow=block;endSize=16;endFill=0;html=1;rounded=0;entryX=0.25;entryY=0;entryDx=0;entryDy=0;" parent="1" target="ucu8to-rhaoiOyb4Yj-d-29" edge="1">
          <mxGeometry width="160" relative="1" as="geometry">
            <mxPoint y="-10" as="sourcePoint" />
            <mxPoint x="10" y="20" as="targetPoint" />
            <Array as="points">
              <mxPoint y="60" />
              <mxPoint x="95" y="60" />
            </Array>
          </mxGeometry>
        </mxCell>
        <mxCell id="8yvaaC4j_iygKgxPBqIS-2" value="InvoiceItenID" style="swimlane;fontStyle=0;childLayout=stackLayout;horizontal=1;startSize=26;fillColor=none;horizontalStack=0;resizeParent=1;resizeParentMax=0;resizeLast=0;collapsible=1;marginBottom=0;" vertex="1" parent="1">
          <mxGeometry x="120" y="-310" width="190" height="302" as="geometry" />
        </mxCell>
        <mxCell id="8yvaaC4j_iygKgxPBqIS-3" value="+productCode: String " style="text;strokeColor=none;fillColor=none;align=left;verticalAlign=top;spacingLeft=4;spacingRight=4;overflow=hidden;rotatable=0;points=[[0,0.5],[1,0.5]];portConstraint=eastwest;" vertex="1" parent="8yvaaC4j_iygKgxPBqIS-2">
          <mxGeometry y="26" width="190" height="26" as="geometry" />
        </mxCell>
        <mxCell id="8yvaaC4j_iygKgxPBqIS-4" value="+ invoiceNum: Int " style="text;strokeColor=none;fillColor=none;align=left;verticalAlign=top;spacingLeft=4;spacingRight=4;overflow=hidden;rotatable=0;points=[[0,0.5],[1,0.5]];portConstraint=eastwest;" vertex="1" parent="8yvaaC4j_iygKgxPBqIS-2">
          <mxGeometry y="52" width="190" height="26" as="geometry" />
        </mxCell>
        <mxCell id="8yvaaC4j_iygKgxPBqIS-5" value="+ InvoiceItemID: String&#xa;&#xa;+getProductCode() : String &#xa;&#xa;+setProductCode() : String&#xa;&#xa;+getInvoiceNum() : Stirng &#xa;&#xa;+setInvoiceNum() : String&#xa; &#xa;" style="text;strokeColor=none;fillColor=none;align=left;verticalAlign=top;spacingLeft=4;spacingRight=4;overflow=hidden;rotatable=0;points=[[0,0.5],[1,0.5]];portConstraint=eastwest;" vertex="1" parent="8yvaaC4j_iygKgxPBqIS-2">
          <mxGeometry y="78" width="190" height="224" as="geometry" />
        </mxCell>
        <mxCell id="8yvaaC4j_iygKgxPBqIS-6" value="Extends" style="endArrow=block;endSize=16;endFill=0;html=1;rounded=0;exitX=0.498;exitY=1.002;exitDx=0;exitDy=0;exitPerimeter=0;entryX=0.75;entryY=0;entryDx=0;entryDy=0;" edge="1" parent="1" source="8yvaaC4j_iygKgxPBqIS-5" target="ucu8to-rhaoiOyb4Yj-d-29">
          <mxGeometry width="160" relative="1" as="geometry">
            <mxPoint x="80" y="10" as="sourcePoint" />
            <mxPoint x="240" y="10" as="targetPoint" />
            <Array as="points">
              <mxPoint x="165" y="-8" />
            </Array>
          </mxGeometry>
        </mxCell>
        <mxCell id="8yvaaC4j_iygKgxPBqIS-7" value="InvenCategory" style="swimlane;fontStyle=0;childLayout=stackLayout;horizontal=1;startSize=26;fillColor=none;horizontalStack=0;resizeParent=1;resizeParentMax=0;resizeLast=0;collapsible=1;marginBottom=0;" vertex="1" parent="1">
          <mxGeometry x="-170" y="60" width="140" height="212" as="geometry" />
        </mxCell>
        <mxCell id="8yvaaC4j_iygKgxPBqIS-8" value="+ categoryID : String " style="text;strokeColor=none;fillColor=none;align=left;verticalAlign=top;spacingLeft=4;spacingRight=4;overflow=hidden;rotatable=0;points=[[0,0.5],[1,0.5]];portConstraint=eastwest;" vertex="1" parent="8yvaaC4j_iygKgxPBqIS-7">
          <mxGeometry y="26" width="140" height="26" as="geometry" />
        </mxCell>
        <mxCell id="8yvaaC4j_iygKgxPBqIS-9" value="+ Name : String &#xa;&#xa;+getcategoryID() : String &#xa;&#xa;+setcategoryID() : String&#xa;&#xa;+getName() : String &#xa;&#xa;+setName() : String  &#xa;" style="text;strokeColor=none;fillColor=none;align=left;verticalAlign=top;spacingLeft=4;spacingRight=4;overflow=hidden;rotatable=0;points=[[0,0.5],[1,0.5]];portConstraint=eastwest;" vertex="1" parent="8yvaaC4j_iygKgxPBqIS-7">
          <mxGeometry y="52" width="140" height="160" as="geometry" />
        </mxCell>
        <mxCell id="8yvaaC4j_iygKgxPBqIS-11" value="Extends" style="endArrow=block;endSize=16;endFill=0;html=1;rounded=0;exitX=1.031;exitY=0.384;exitDx=0;exitDy=0;exitPerimeter=0;entryX=0;entryY=0.5;entryDx=0;entryDy=0;" edge="1" parent="1" source="8yvaaC4j_iygKgxPBqIS-9" target="ucu8to-rhaoiOyb4Yj-d-31">
          <mxGeometry width="160" relative="1" as="geometry">
            <mxPoint x="-80" y="110" as="sourcePoint" />
            <mxPoint x="80" y="110" as="targetPoint" />
          </mxGeometry>
        </mxCell>
        <mxCell id="8yvaaC4j_iygKgxPBqIS-12" value="Staff" style="swimlane;fontStyle=0;childLayout=stackLayout;horizontal=1;startSize=26;fillColor=none;horizontalStack=0;resizeParent=1;resizeParentMax=0;resizeLast=0;collapsible=1;marginBottom=0;" vertex="1" parent="1">
          <mxGeometry x="-170" y="320" width="190" height="550" as="geometry" />
        </mxCell>
        <mxCell id="8yvaaC4j_iygKgxPBqIS-13" value="+ fName: String " style="text;strokeColor=none;fillColor=none;align=left;verticalAlign=top;spacingLeft=4;spacingRight=4;overflow=hidden;rotatable=0;points=[[0,0.5],[1,0.5]];portConstraint=eastwest;" vertex="1" parent="8yvaaC4j_iygKgxPBqIS-12">
          <mxGeometry y="26" width="190" height="26" as="geometry" />
        </mxCell>
        <mxCell id="8yvaaC4j_iygKgxPBqIS-14" value="+ lName: String" style="text;strokeColor=none;fillColor=none;align=left;verticalAlign=top;spacingLeft=4;spacingRight=4;overflow=hidden;rotatable=0;points=[[0,0.5],[1,0.5]];portConstraint=eastwest;" vertex="1" parent="8yvaaC4j_iygKgxPBqIS-12">
          <mxGeometry y="52" width="190" height="26" as="geometry" />
        </mxCell>
        <mxCell id="8yvaaC4j_iygKgxPBqIS-15" value="+ idNum : Sting&#xa;&#xa;+phoneNum : Sting &#xa;&#xa;+employeeType :Sting &#xa;&#xa;+departmentCode :String&#xa;&#xa;+getfName(): String &#xa;&#xa;+ setfName(): String &#xa;&#xa;+ getlName(): String&#xa;&#xa;+ setlName(): String&#xa;&#xa;+ getidNum() : Sting&#xa;&#xa;+ setidNum() : Sting&#xa;&#xa;+getphoneNum() : Sting &#xa;&#xa;+setphoneNum (): Sting &#xa;&#xa;+getemployeeType() :Sting &#xa;&#xa;+setemployeeType ():Sting&#xa;&#xa; +getdepartmentCode() :String&#xa;&#xa;+setdepartmentCode() :String&#xa; " style="text;strokeColor=none;fillColor=none;align=left;verticalAlign=top;spacingLeft=4;spacingRight=4;overflow=hidden;rotatable=0;points=[[0,0.5],[1,0.5]];portConstraint=eastwest;" vertex="1" parent="8yvaaC4j_iygKgxPBqIS-12">
          <mxGeometry y="78" width="190" height="472" as="geometry" />
        </mxCell>
        <mxCell id="8yvaaC4j_iygKgxPBqIS-16" value="Extends" style="endArrow=block;endSize=16;endFill=0;html=1;rounded=0;exitX=0.5;exitY=0;exitDx=0;exitDy=0;" edge="1" parent="1" source="8yvaaC4j_iygKgxPBqIS-12">
          <mxGeometry width="160" relative="1" as="geometry">
            <mxPoint x="90" y="360" as="sourcePoint" />
            <mxPoint x="60" y="210" as="targetPoint" />
            <Array as="points">
              <mxPoint y="320" />
              <mxPoint y="210" />
            </Array>
          </mxGeometry>
        </mxCell>
      </root>
    </mxGraphModel>
  </diagram>
</mxfile>
